<?xml version="1.0" encoding="UTF-8" standalone="no"?>
<!DOCTYPE svg PUBLIC "-//W3C//DTD SVG 1.1//EN" "http://www.w3.org/Graphics/SVG/1.1/DTD/svg11.dtd">
<svg version="1.1" xmlns="http://www.w3.org/2000/svg" xmlns:xlink="http://www.w3.org/1999/xlink" preserveAspectRatio="xMidYMid meet" viewBox="0 0 640 640" width="30" height="30"><defs><path d="M413.46 170.25C413.46 163.19 407.74 157.48 400.69 157.48C383.16 157.48 242.91 157.48 225.38 157.48C218.33 157.48 212.61 163.18 212.61 170.25C212.61 177.31 218.33 183.01 225.38 183.01C237.07 183.01 295.5 183.01 400.69 183.01C409.2 179.21 413.46 174.95 413.46 170.25Z" id="d25aoPQcYA"></path><path d="M489.58 157.48C482.53 157.48 476.81 163.19 476.81 170.25C476.81 177.31 482.53 183.02 489.58 183.02C494.53 183.02 519.26 183.02 563.79 183.02L563.79 614.47L76.21 614.47L76.21 183.01C118.18 183.01 141.5 183.01 146.16 183.01C153.21 183.01 158.93 177.31 158.93 170.25C158.93 163.19 153.21 157.48 146.16 157.48C137.89 157.48 71.72 157.48 63.44 157.48C56.4 157.48 50.67 163.18 50.67 170.25C50.67 215.94 50.67 581.53 50.67 627.23C50.67 634.29 56.4 640 63.44 640C114.75 640 525.25 640 576.56 640C583.6 640 589.33 634.29 589.33 627.23C589.33 581.53 589.33 215.94 589.33 170.25C589.33 163.19 583.62 157.48 576.56 157.48C559.16 157.48 498.28 157.48 489.58 157.48Z" id="aaS7AQ76V"></path><path d="M456.64 198.96C456.64 189.65 456.64 115.17 456.64 105.86C456.64 47.5 393.63 0 315.88 0C238.43 0 175.43 47.5 175.43 105.86C175.43 115.17 175.43 189.65 175.43 198.96C175.43 206.02 181.15 211.73 188.2 211.73C195.25 211.73 200.97 206.02 200.97 198.96C200.97 189.65 200.97 115.17 200.97 105.86C200.97 61.57 252.52 25.54 316.2 25.54C379.55 25.54 431.11 61.57 431.11 105.86C431.11 115.17 431.11 189.65 431.11 198.96C431.11 206.02 436.81 211.73 443.87 211.73C450.92 211.73 456.64 206.02 456.64 198.96Z" id="i60zfcfxM"></path><path d="M188.2 264.63C206.31 264.63 221.06 249.89 221.06 231.79C221.06 224.73 215.34 219.02 208.29 219.02C201.25 219.02 195.52 224.72 195.52 231.79C195.52 235.81 192.24 239.09 188.2 239.09C184.16 239.09 180.87 235.81 180.87 231.79C180.87 224.73 175.15 219.02 168.1 219.02C161.05 219.02 155.33 224.73 155.33 231.79C155.33 249.89 170.08 264.63 188.2 264.63Z" id="bdh4i11Wi"></path><path d="M476.74 231.79C476.74 224.73 471.02 219.02 463.97 219.02C456.92 219.02 451.2 224.72 451.2 231.79C451.2 235.81 447.92 239.09 443.87 239.09C439.82 239.09 436.54 235.81 436.54 231.79C436.54 224.73 430.82 219.02 423.77 219.02C416.73 219.02 411.01 224.72 411.01 231.79C411.01 249.89 425.76 264.63 443.87 264.63C461.99 264.63 476.74 249.89 476.74 231.79Z" id="a5Q3ecgyA"></path></defs><g><g><g><use xlink:href="#d25aoPQcYA" opacity="1" fill="#010002" fill-opacity="1"></use><g><use xlink:href="#d25aoPQcYA" opacity="1" fill-opacity="0" stroke="#000000" stroke-width="1" stroke-opacity="0"></use></g></g><g><use xlink:href="#aaS7AQ76V" opacity="1" fill="#010002" fill-opacity="1"></use><g><use xlink:href="#aaS7AQ76V" opacity="1" fill-opacity="0" stroke="#000000" stroke-width="1" stroke-opacity="0"></use></g></g><g><use xlink:href="#i60zfcfxM" opacity="1" fill="#010002" fill-opacity="1"></use><g><use xlink:href="#i60zfcfxM" opacity="1" fill-opacity="0" stroke="#000000" stroke-width="1" stroke-opacity="0"></use></g></g><g><use xlink:href="#bdh4i11Wi" opacity="1" fill="#010002" fill-opacity="1"></use><g><use xlink:href="#bdh4i11Wi" opacity="1" fill-opacity="0" stroke="#000000" stroke-width="1" stroke-opacity="0"></use></g></g><g><use xlink:href="#a5Q3ecgyA" opacity="1" fill="#010002" fill-opacity="1"></use><g><use xlink:href="#a5Q3ecgyA" opacity="1" fill-opacity="0" stroke="#000000" stroke-width="1" stroke-opacity="0"></use></g></g></g></g></svg>